Genre:Comedie
Language:English
 
http://www.imdb.com/title/tt1482393/

Source:DVD


Format : Matroska
File size : 952 MiB
Duration : 1h 23mn
Overall bit rate : 1 589 Kbps


Video
Format settings, CABAC : Yes
Format settings, ReFrames : 4 frames
Codec ID : V_MPEG4/ISO/AVC
Duration : 1h 23mn
Bit rate : 1 200 Kbps
Width : 720 pixels
Height : 384 pixels
Display aspect ratio : 1.875
Frame rate mode : Variable
Frame rate : 23.976 fps
Color space : YUV
Chroma subsampling : 4:2:0
Bit depth : 8 bits
Scan type : Progressive
Bits/(Pixel*Frame) : 0.181
Stream size : 703 MiB (74%)
Writing library : x264


Audio
ID : 2
Format : AC-3
Format/Info : Audio Coding 3
Mode extension : CM (complete main)
Codec ID : A_AC3
Duration : 1h 23mn
Bit rate mode : Constant
Bit rate : 384 Kbps
Channel(s) : 6 channels
Channel positions : Front: L C R, Side: L R, LFE
Sampling rate : 48.0 KHz
Bit depth : 16 bits
Video delay : -1mn 5s
Stream size : 230 MiB (24%)
Language : English
 
http://shareimage.org/images/at7uurw0zysxn154pce8.png
 
http://shareimage.org/images/aj5k3mb3tcspjeo7b9jc.png
 
http://shareimage.org/images/3dtkejaenndr3hamlx1z.png
 
http://shareimage.org/images/qqw3aork3wxnl221rak5.png
 
http://shareimage.org/images/nm9vs8zy8mbw5qzgm7b.png
 
http://shareimage.org/images/qmxpk7fdvslclr2q55c8.png